<?xml version="1.0" encoding="UTF-8" standalone="no"?>
<!DOCTYPE svg PUBLIC "-//W3C//DTD SVG 1.1//EN" "http://www.w3.org/Graphics/SVG/1.1/DTD/svg11.dtd">
<svg width="100%" height="100%" viewBox="0 0 1001 661" version="1.1" xmlns="http://www.w3.org/2000/svg" xmlns:xlink="http://www.w3.org/1999/xlink" xml:space="preserve" xmlns:serif="http://www.serif.com/" style="fill-rule:evenodd;clip-rule:evenodd;stroke-linecap:round;stroke-linejoin:round;stroke-miterlimit:1.5;">
    <g transform="matrix(1,0,0,1,-34.8181,-28.2489)">
        <g id="Artboard1" transform="matrix(1.03209,0,0,1.03098,-57.7679,-48.9601)">
            <rect x="55.972" y="47.489" width="1033.56" height="731.419" style="fill:none;"/>
            <g id="Frame">
                <g transform="matrix(0.943889,0,0,0.86262,-199.542,-66.5558)">
                    <path d="M1333.27,182.314C1333.27,172.384 1325.91,164.323 1316.85,164.323L323.189,164.323C314.125,164.323 306.765,172.384 306.765,182.314L306.765,888.454C306.765,898.383 314.125,906.445 323.189,906.445L1316.85,906.445C1325.91,906.445 1333.27,898.383 1333.27,888.454L1333.27,182.314Z" style="fill:white;stroke:rgb(195,195,195);stroke-width:0.67px;"/>
                </g>
                <g transform="matrix(2.9689,0,0,0.76801,-566.219,49.6038)">
                    <path d="M547.387,53.525C547.387,42.372 545.047,33.318 542.165,33.318L226.256,33.318C223.374,33.318 221.035,42.372 221.035,53.525L221.035,96.465L547.387,96.465L547.387,53.525Z" style="fill:rgb(227,227,227);"/>
                </g>
                <g transform="matrix(0.968905,0,0,0.969954,18.3109,-2.40403)">
                    <g transform="matrix(0.848971,0,0,0.895494,-796.551,16.425)">
                        <path d="M1071.69,94.307C1071.69,93.906 1071.35,93.581 1070.93,93.581L1053.1,93.581C1052.68,93.581 1052.33,93.906 1052.33,94.307L1052.33,95.758C1052.33,96.159 1052.68,96.484 1053.1,96.484L1070.93,96.484C1071.35,96.484 1071.69,96.159 1071.69,95.758L1071.69,94.307Z" style="fill:rgb(132,132,132);"/>
                    </g>
                    <g transform="matrix(0.401549,-0.401549,0.63321,0.63321,-386.913,464.887)">
                        <path d="M1071.69,94.307C1071.69,93.906 1071.18,93.581 1070.55,93.581L1053.48,93.581C1052.85,93.581 1052.33,93.906 1052.33,94.307L1052.33,95.758C1052.33,96.159 1052.85,96.484 1053.48,96.484L1070.55,96.484C1071.18,96.484 1071.69,96.159 1071.69,95.758L1071.69,94.307Z" style="fill:rgb(132,132,132);"/>
                    </g>
                    <g transform="matrix(0.401549,0.401549,-0.63321,0.63321,-266.443,-381.97)">
                        <path d="M1071.69,94.307C1071.69,93.906 1071.18,93.581 1070.55,93.581L1053.48,93.581C1052.85,93.581 1052.33,93.906 1052.33,94.307L1052.33,95.758C1052.33,96.159 1052.85,96.484 1053.48,96.484L1070.55,96.484C1071.18,96.484 1071.69,96.159 1071.69,95.758L1071.69,94.307Z" style="fill:rgb(132,132,132);"/>
                    </g>
                </g>
                <g transform="matrix(-0.968905,0,0,0.969954,279.614,-2.40403)">
                    <g transform="matrix(0.848971,0,0,0.895494,-765.938,16.4324)">
                        <path d="M1071.69,94.307C1071.69,93.906 1071.35,93.581 1070.93,93.581L1053.1,93.581C1052.68,93.581 1052.33,93.906 1052.33,94.307L1052.33,95.758C1052.33,96.159 1052.68,96.484 1053.1,96.484L1070.93,96.484C1071.35,96.484 1071.69,96.159 1071.69,95.758L1071.69,94.307Z" style="fill:rgb(208,208,208);"/>
                    </g>
                    <g transform="matrix(0.401549,-0.401549,0.63321,0.63321,-356.299,464.894)">
                        <path d="M1071.69,94.307C1071.69,93.906 1071.18,93.581 1070.55,93.581L1053.48,93.581C1052.85,93.581 1052.33,93.906 1052.33,94.307L1052.33,95.758C1052.33,96.159 1052.85,96.484 1053.48,96.484L1070.55,96.484C1071.18,96.484 1071.69,96.159 1071.69,95.758L1071.69,94.307Z" style="fill:rgb(208,208,208);"/>
                    </g>
                    <g transform="matrix(0.401549,0.401549,-0.63321,0.63321,-235.83,-381.963)">
                        <path d="M1071.69,94.307C1071.69,93.906 1071.18,93.581 1070.55,93.581L1053.48,93.581C1052.85,93.581 1052.33,93.906 1052.33,94.307L1052.33,95.758C1052.33,96.159 1052.85,96.484 1053.48,96.484L1070.55,96.484C1071.18,96.484 1071.69,96.159 1071.69,95.758L1071.69,94.307Z" style="fill:rgb(208,208,208);"/>
                    </g>
                </g>
                <g transform="matrix(0.891079,0,0,0.897265,91.9592,2.94633)">
                    <path d="M1012.55,98.348C1012.55,95.254 1010.02,92.742 1006.91,92.742L148.314,92.742C145.202,92.742 142.675,95.254 142.675,98.348L142.675,113.499C142.675,116.593 145.202,119.105 148.314,119.105L1006.91,119.105C1010.02,119.105 1012.55,116.593 1012.55,113.499L1012.55,98.348Z" style="fill:white;"/>
                </g>
                <g transform="matrix(0.821255,0,0,0.785519,135.381,13.9609)">
                    <path d="M1026.67,97.486C1026.75,97.304 1026.94,97.188 1027.14,97.188C1027.34,97.188 1027.52,97.304 1027.6,97.486L1030.15,103.013L1036.2,103.732C1036.4,103.756 1036.56,103.893 1036.63,104.083C1036.69,104.273 1036.63,104.483 1036.49,104.618L1032.02,108.753L1033.2,114.724C1033.24,114.921 1033.16,115.122 1033,115.239C1032.84,115.357 1032.62,115.37 1032.45,115.272L1027.14,112.3L1021.82,115.272C1021.65,115.37 1021.43,115.357 1021.27,115.239C1021.11,115.122 1021.03,114.921 1021.07,114.724L1022.25,108.753L1017.78,104.618C1017.64,104.483 1017.58,104.273 1017.65,104.083C1017.71,103.893 1017.88,103.756 1018.07,103.732L1024.12,103.013L1026.67,97.486Z" style="fill:rgb(255,205,0);"/>
                </g>
                <g transform="matrix(0.822572,0,0,0.868587,154.032,9.64765)">
                    <path d="M1071.69,94.307C1071.69,93.906 1071.35,93.581 1070.93,93.581L1053.1,93.581C1052.68,93.581 1052.33,93.906 1052.33,94.307L1052.33,95.758C1052.33,96.159 1052.68,96.484 1053.1,96.484L1070.93,96.484C1071.35,96.484 1071.69,96.159 1071.69,95.758L1071.69,94.307Z" style="fill:rgb(132,132,132);"/>
                </g>
                <g transform="matrix(0.822572,0,0,0.868587,154.032,14.3751)">
                    <path d="M1071.69,94.307C1071.69,93.906 1071.35,93.581 1070.93,93.581L1053.1,93.581C1052.68,93.581 1052.33,93.906 1052.33,94.307L1052.33,95.758C1052.33,96.159 1052.68,96.484 1053.1,96.484L1070.93,96.484C1071.35,96.484 1071.69,96.159 1071.69,95.758L1071.69,94.307Z" style="fill:rgb(132,132,132);"/>
                </g>
                <g transform="matrix(0.822572,0,0,0.868587,154.032,18.9643)">
                    <path d="M1071.69,94.307C1071.69,93.906 1071.35,93.581 1070.93,93.581L1053.1,93.581C1052.68,93.581 1052.33,93.906 1052.33,94.307L1052.33,95.758C1052.33,96.159 1052.68,96.484 1053.1,96.484L1070.93,96.484C1071.35,96.484 1071.69,96.159 1071.69,95.758L1071.69,94.307Z" style="fill:rgb(132,132,132);"/>
                </g>
                <g transform="matrix(1.02195,0,0,0.995655,11.7849,-4.2581)">
                    <g transform="matrix(0.883696,-0.0830875,0.0830875,0.883696,10.1767,24.947)">
                        <path d="M174.439,108.616C174.543,108.724 174.596,108.872 174.585,109.024C174.574,109.176 174.5,109.316 174.381,109.408C172.902,110.518 171.064,111.179 169.073,111.179C164.201,111.179 160.245,107.223 160.245,102.35C160.245,97.478 164.201,93.522 169.073,93.522C172.54,93.522 175.543,95.525 176.986,98.435L176.578,98.009L174.782,99.732C173.789,97.572 171.605,96.071 169.073,96.071C165.607,96.071 162.794,98.885 162.794,102.35C162.794,105.816 165.607,108.63 169.073,108.63C170.389,108.63 171.611,108.225 172.62,107.532C172.885,107.343 173.243,107.377 173.469,107.612C173.761,107.909 174.15,108.314 174.439,108.616Z" style="fill:rgb(132,132,132);"/>
                    </g>
                    <g transform="matrix(-0.653907,0.761427,-0.615572,-0.528647,348.179,13.1157)">
                        <path d="M177.063,92.212C177.105,92.135 177.175,92.088 177.25,92.087C177.324,92.085 177.393,92.129 177.435,92.204C177.991,93.215 179.669,96.266 180.449,97.684C180.527,97.827 180.534,98.015 180.465,98.171C180.396,98.326 180.263,98.424 180.121,98.424C178.724,98.424 175.701,98.424 174.338,98.424C174.2,98.424 174.076,98.331 174.014,98.182C173.951,98.034 173.961,97.852 174.039,97.71C174.811,96.307 176.499,93.239 177.063,92.212Z" style="fill:rgb(132,132,132);"/>
                    </g>
                </g>
            </g>
        </g>
    </g>
</svg>
